<svg width="748" height="338" viewBox="0 0 748 338" fill="none" xmlns="http://www.w3.org/2000/svg">
<path d="M650.955 260.717C633.239 260.717 616.999 256.534 602.236 248.168C587.719 239.802 576.154 228.361 567.543 213.844C558.931 199.08 554.625 182.964 554.625 165.494C554.625 148.024 558.931 132.154 567.543 117.883C576.154 103.365 587.719 91.9238 602.236 83.558C616.999 75.1921 633.239 71.0092 650.955 71.0092C668.671 71.0092 684.787 75.1921 699.305 83.558C714.068 91.9238 725.755 103.365 734.367 117.883C742.979 132.154 747.285 148.024 747.285 165.494C747.285 182.964 742.979 199.08 734.367 213.844C725.755 228.361 714.068 239.802 699.305 248.168C684.787 256.534 668.671 260.717 650.955 260.717ZM650.955 221.225C661.289 221.225 670.639 218.765 679.005 213.844C687.371 208.922 693.891 202.279 698.566 193.913C703.487 185.301 705.948 175.828 705.948 165.494C705.948 155.16 703.487 145.81 698.566 137.444C693.891 129.078 687.371 122.558 679.005 117.883C670.639 112.961 661.289 110.501 650.955 110.501C640.621 110.501 631.271 112.961 622.905 117.883C614.539 122.558 607.895 129.078 602.974 137.444C598.299 145.81 595.962 155.16 595.962 165.494C595.962 175.828 598.299 185.301 602.974 193.913C607.895 202.279 614.539 208.922 622.905 213.844C631.271 218.765 640.621 221.225 650.955 221.225Z" fill="#A6FFE0"/>
<path d="M360.849 74.7001H404.031L473.418 257.026H429.867L360.849 74.7001ZM452.75 206.462L502.576 74.7001H546.127L495.932 206.462H452.75Z" fill="#A6FFE0"/>
<path d="M163.376 74.7001H205.451L256.753 257.026H215.047L163.376 74.7001ZM306.21 74.7001H348.285L274.1 337.117H232.763L306.21 74.7001Z" fill="#A6FFE0"/>
<path d="M0.714966 0.88382H41.6829V257.026H0.714966V0.88382ZM64.9351 219.38H163.111V257.026H39.8375L64.9351 219.38Z" fill="#A6FFE0"/>
</svg>
