<svg width="836" height="335" viewBox="0 0 836 335" fill="none" xmlns="http://www.w3.org/2000/svg">
<path d="M0.500854 194.103V0.227051H10.359V194.103H0.500854ZM30.0752 194.103V0.227051H49.7913V194.103H30.0752ZM59.6495 194.103V0.227051H69.5076V194.103H59.6495Z" fill="white"/>
<path d="M105.68 194.103V0.227051H115.538V194.103H105.68ZM125.396 194.103V0.227051H145.112V194.103H125.396ZM164.828 194.103V0.227051H174.686V194.103H164.828Z" fill="white"/>
<path d="M210.858 194.103V0.227051H220.717V194.103H210.858ZM250.291 194.103V0.227051H289.723V194.103H250.291ZM299.581 194.103V0.227051H309.44V194.103H299.581Z" fill="white"/>
<path d="M316.037 194.103V0.227051H325.895V194.103H316.037ZM335.754 194.103V0.227051H375.186V194.103H335.754ZM394.902 194.103V0.227051H404.76V194.103H394.902Z" fill="white"/>
<path d="M421.216 194.103V0.227051H431.074V194.103H421.216ZM450.79 194.103V0.227051H490.223V194.103H450.79ZM500.081 194.103V0.227051H509.939V194.103H500.081Z" fill="white"/>
<path d="M526.395 194.103V0.227051H546.111V194.103H526.395ZM555.969 194.103V0.227051H575.685V194.103H555.969ZM585.543 194.103V0.227051H624.976V194.103H585.543Z" fill="white"/>
<path d="M631.574 194.103V0.227051H651.29V194.103H631.574ZM671.006 194.103V0.227051H680.864V194.103H671.006ZM690.722 194.103V0.227051H700.58V194.103H690.722Z" fill="white"/>
<path d="M736.753 194.103V0.227051H746.611V194.103H736.753ZM766.327 194.103V0.227051H786.043V194.103H766.327ZM805.759 194.103V0.227051H835.334V194.103H805.759Z" fill="white"/>
<path d="M51.723 266.521C50.885 266.311 49.8375 266.207 48.5805 266.207C44.8096 266.207 41.6671 267.045 39.1531 268.721C40.6196 271.444 41.3529 274.377 41.3529 277.519C41.3529 281.081 40.5149 284.223 38.8389 286.947C37.3725 289.88 35.1726 292.184 32.2397 293.86C29.5162 295.327 26.269 296.06 22.4981 296.06C19.5651 296.06 16.8418 295.536 14.3278 294.489C12.8613 296.165 12.1279 297.841 12.1279 299.517C12.1279 301.402 13.2803 302.764 15.5847 303.602C18.0987 304.44 22.3934 304.859 28.4688 304.859C36.0107 304.859 41.1433 305.906 43.8668 308.001C46.5902 310.306 47.952 313.762 47.952 318.371C47.952 322.98 46.1713 326.751 42.6098 329.684C38.8389 332.827 32.973 334.398 25.0121 334.398C17.2607 334.398 11.2901 333.246 7.10012 330.941C2.70068 328.637 0.500854 325.18 0.500854 320.571C0.500854 317.848 1.33893 315.438 3.0149 313.343C4.48138 311.248 6.47152 309.677 8.98549 308.63C6.26202 306.954 4.90041 304.545 4.90041 301.402C4.90041 298.26 6.47158 295.012 9.61403 291.66C7.72856 289.984 6.2621 287.89 5.21461 285.376C4.37663 283.071 3.95766 280.452 3.95766 277.519C3.95766 274.167 4.69089 271.025 6.15736 268.092C7.62385 265.159 9.82354 262.959 12.7565 261.493C15.48 259.817 18.7271 258.979 22.4981 258.979C28.1545 258.979 32.7634 260.76 36.3249 264.321C38.0009 262.645 39.8864 261.388 41.9814 260.55C43.8669 259.712 46.0666 259.293 48.5805 259.293L50.466 259.607L51.723 266.521ZM22.4981 289.146C25.85 289.146 28.6782 287.994 30.9827 285.69C33.0777 283.595 34.1252 280.871 34.1252 277.519C34.1252 274.167 33.0777 271.339 30.9827 269.035C28.6782 266.94 25.85 265.892 22.4981 265.892C19.1461 265.892 16.3179 266.94 14.0135 269.035C11.9185 271.339 10.871 274.167 10.871 277.519C10.871 280.871 11.9185 283.595 14.0135 285.69C16.3179 287.994 19.1461 289.146 22.4981 289.146ZM40.4101 319.628C40.4101 317.743 40.0958 316.276 39.4673 315.229C38.8389 314.181 37.4771 313.343 35.3821 312.715C33.4967 312.296 30.5637 312.086 26.5833 312.086C21.1364 312.086 16.737 311.563 13.385 310.515C11.4996 311.772 10.1378 313.029 9.29983 314.286C8.67134 315.753 8.35707 317.533 8.35707 319.628C8.35707 322.352 9.82354 324.447 12.7565 325.913C15.6895 327.38 19.7747 328.113 25.0121 328.113C30.2496 328.113 34.1253 327.38 36.6392 325.913C39.1532 324.237 40.4101 322.142 40.4101 319.628Z" fill="white"/>
<path d="M128.423 315.543C120.463 315.543 114.178 313.134 109.569 308.315C104.75 303.497 102.341 296.688 102.341 287.889C102.341 282.024 103.493 276.891 105.798 272.491C107.893 268.302 110.826 265.159 114.597 263.064C118.158 260.76 122.243 259.607 126.852 259.607C133.347 259.607 138.584 261.702 142.565 265.892C146.545 270.292 148.535 276.681 148.535 285.061C148.535 285.899 148.535 287.156 148.535 288.832H110.511C110.721 295.327 112.502 300.25 115.854 303.602C119.206 306.954 123.5 308.63 128.738 308.63C134.394 308.63 139.003 306.639 142.565 302.659L147.278 307.373C142.669 312.82 136.384 315.543 128.423 315.543ZM140.05 282.233C140.05 277.205 138.794 273.225 136.28 270.292C133.766 267.359 130.414 265.892 126.224 265.892C122.453 265.892 119.101 267.254 116.168 269.978C113.235 272.701 111.454 276.786 110.826 282.233H140.05Z" fill="white"/>
<path d="M226.493 315.229C221.674 315.229 217.38 314.077 213.609 311.772C210.047 309.468 207.219 306.22 205.124 302.031C202.819 297.841 201.667 293.022 201.667 287.575C201.667 282.128 202.819 277.31 205.124 273.12C207.219 268.93 210.047 265.683 213.609 263.378C217.38 260.864 221.674 259.607 226.493 259.607C231.311 259.607 235.501 260.864 239.062 263.378C242.833 265.683 245.766 268.93 247.861 273.12C249.956 277.31 251.004 282.128 251.004 287.575C251.004 293.022 249.956 297.841 247.861 302.031C245.766 306.22 242.833 309.468 239.062 311.772C235.501 314.077 231.311 315.229 226.493 315.229ZM226.493 308.315C229.426 308.315 232.149 307.373 234.663 305.487C236.968 303.811 238.853 301.402 240.319 298.26C241.576 294.908 242.205 291.241 242.205 287.261C242.205 281.186 240.738 276.262 237.806 272.491C234.873 268.721 231.102 266.835 226.493 266.835C221.884 266.835 218.113 268.721 215.18 272.491C212.247 276.262 210.78 281.186 210.78 287.261C210.78 291.241 211.409 294.908 212.666 298.26C214.132 301.402 216.018 303.811 218.322 305.487C220.627 307.373 223.35 308.315 226.493 308.315Z" fill="white"/>
<path d="M327.076 315.543C318.067 315.543 310.526 312.715 304.45 307.058L309.164 299.202L309.792 297.945L310.735 298.574C310.735 298.783 310.735 299.098 310.735 299.517C310.944 300.145 311.154 300.669 311.363 301.088C311.782 301.716 312.201 302.345 312.62 302.973C314.506 304.649 316.601 306.011 318.905 307.058C321.21 307.896 324.038 308.315 327.39 308.315C331.58 308.315 334.932 307.582 337.446 306.116C339.75 304.649 340.903 302.554 340.903 299.831C340.903 297.526 339.96 295.641 338.074 294.174C336.189 292.708 332.627 291.241 327.39 289.775C313.982 285.795 307.278 280.243 307.278 273.12C307.278 268.93 309.059 265.683 312.62 263.378C315.972 260.864 320.791 259.607 327.076 259.607C331.894 259.607 335.979 260.341 339.331 261.807C342.683 263.064 345.721 265.159 348.444 268.092L343.416 273.748L342.788 274.691L342.159 274.063C342.159 273.225 341.95 272.596 341.531 272.177C341.322 271.549 340.798 270.92 339.96 270.292C338.074 268.825 336.084 267.778 333.989 267.149C331.685 266.311 329.485 265.892 327.39 265.892C324.038 265.892 321.21 266.521 318.905 267.778C316.81 268.825 315.763 270.397 315.763 272.491C315.763 274.586 316.915 276.367 319.22 277.834C321.315 279.51 325.19 281.186 330.847 282.862C337.551 284.957 342.264 287.156 344.988 289.461C347.921 291.765 349.387 294.908 349.387 298.888C349.387 303.707 347.502 307.687 343.731 310.829C339.96 313.972 334.408 315.543 327.076 315.543Z" fill="white"/>
<path d="M450.285 309.258C445.257 313.239 439.6 315.229 433.315 315.229C427.449 315.229 423.259 313.448 420.745 309.887C418.231 306.116 416.975 300.25 416.975 292.289C416.975 290.822 417.079 288.518 417.289 285.376L418.546 267.778H406.604V260.864H418.86L419.803 246.723L428.916 245.152H430.173V245.781C429.754 246.409 429.44 247.038 429.23 247.666C428.811 248.295 428.602 249.133 428.602 250.18L427.345 260.864H444.942V267.778H426.716L425.773 286.004C425.564 289.146 425.459 291.137 425.459 291.975C425.459 298.26 426.192 302.554 427.659 304.859C429.125 306.954 431.43 308.001 434.572 308.001C436.877 308.001 439.077 307.582 441.172 306.744C443.057 305.906 445.257 304.545 447.771 302.659L450.285 309.258Z" fill="white"/>
<path d="M550.868 260.864C550.239 264.007 549.506 267.149 548.668 270.292C547.621 273.434 546.259 277.624 544.583 282.862L531.07 320.257C529.394 325.285 527.09 328.951 524.157 331.255C521.224 333.56 517.767 334.712 513.787 334.712C508.759 334.712 504.674 333.141 501.531 329.998L505.302 324.342L505.931 323.399L506.559 323.713C506.769 324.551 507.083 325.18 507.502 325.599C507.921 326.227 508.654 326.751 509.701 327.17C511.168 327.589 512.739 327.799 514.415 327.799C517.139 327.799 519.443 326.751 521.329 324.656C523.005 322.561 524.681 319.209 526.357 314.6L504.359 260.864H513.158L529.813 303.602L536.727 282.233C538.403 276.786 539.66 272.701 540.498 269.978C541.336 267.045 541.964 264.007 542.383 260.864H550.868Z" fill="white"/>
<path d="M608.713 307.373H624.74V243.267H609.656V236.667H633.225V307.373H648.937V314.286H608.713V307.373Z" fill="white"/>
<path d="M731.922 315.543C723.961 315.543 717.677 313.134 713.068 308.315C708.249 303.497 705.84 296.688 705.84 287.889C705.84 282.024 706.992 276.891 709.297 272.491C711.392 268.302 714.325 265.159 718.096 263.064C721.657 260.76 725.742 259.607 730.351 259.607C736.846 259.607 742.083 261.702 746.063 265.892C750.044 270.292 752.034 276.681 752.034 285.061C752.034 285.899 752.034 287.156 752.034 288.832H714.01C714.22 295.327 716.001 300.25 719.353 303.602C722.704 306.954 726.999 308.63 732.237 308.63C737.893 308.63 742.502 306.639 746.063 302.659L750.777 307.373C746.168 312.82 739.883 315.543 731.922 315.543ZM743.549 282.233C743.549 277.205 742.293 273.225 739.779 270.292C737.265 267.359 733.913 265.892 729.723 265.892C725.952 265.892 722.6 267.254 719.667 269.978C716.734 272.701 714.953 276.786 714.325 282.233H743.549Z" fill="white"/>
<path d="M828.42 315.543C826.744 315.543 825.173 314.915 823.706 313.658C822.45 312.191 821.821 310.62 821.821 308.944C821.821 307.058 822.45 305.487 823.706 304.23C825.173 302.973 826.744 302.345 828.42 302.345C830.306 302.345 831.877 302.973 833.134 304.23C834.6 305.487 835.334 307.058 835.334 308.944C835.334 310.62 834.6 312.191 833.134 313.658C831.877 314.915 830.306 315.543 828.42 315.543Z" fill="white"/>
</svg>
